<?xml version="1.0" encoding="UTF-8" standalone="no"?>
<!DOCTYPE svg PUBLIC "-//W3C//DTD SVG 1.1//EN"
 "http://www.w3.org/Graphics/SVG/1.1/DTD/svg11.dtd">
<!-- Generated by graphviz version 2.38.0 (20140413.2041)
 -->
<!-- Title: controllers_diagram Pages: 1 -->
<svg width="365pt" height="314pt"
 viewBox="0.00 0.00 365.50 313.50" xmlns="http://www.w3.org/2000/svg" xmlns:xlink="http://www.w3.org/1999/xlink">
<g id="graph0" class="graph" transform="scale(1 1) rotate(0) translate(116 183.5)">
<title>controllers_diagram</title>
<polygon fill="none" stroke="none" points="-116,130 -116,-183.5 249.5,-183.5 249.5,130 -116,130"/>
<!-- _diagram_info -->
<g id="node1" class="node"><title>_diagram_info</title>
<text text-anchor="start" x="-104" y="-21.6" font-family="Times,serif" font-size="13.00">Controllers diagram</text>
<text text-anchor="start" x="-104" y="-7.6" font-family="Times,serif" font-size="13.00">Date: Sep 18 2017 &#45; 11:09</text>
<text text-anchor="start" x="-104" y="6.4" font-family="Times,serif" font-size="13.00">Migration version: 20170916151304</text>
<text text-anchor="start" x="-104" y="20.4" font-family="Times,serif" font-size="13.00">Generated by RailRoady 1.5.3</text>
<text text-anchor="start" x="-104" y="34.4" font-family="Times,serif" font-size="13.00">http://railroady.prestonlee.com</text>
</g>
<!-- ApplicationController -->
<g id="node2" class="node"><title>ApplicationController</title>
<path fill="none" stroke="black" d="M82,-71C82,-71 194,-71 194,-71 200,-71 206,-77 206,-83 206,-83 206,-153 206,-153 206,-159 200,-165 194,-165 194,-165 82,-165 82,-165 76,-165 70,-159 70,-153 70,-153 70,-83 70,-83 70,-77 76,-71 82,-71"/>
<text text-anchor="middle" x="138" y="-149.8" font-family="Times,serif" font-size="14.00">ApplicationController</text>
<polyline fill="none" stroke="black" points="70,-142 206,-142 "/>
<polyline fill="none" stroke="black" points="70,-118 206,-118 "/>
<polyline fill="none" stroke="black" points="70,-94 206,-94 "/>
<text text-anchor="start" x="78" y="-78.8" font-family="Times,serif" font-size="14.00">_layout</text>
</g>
<!-- OrdersController -->
<g id="node3" class="node"><title>OrdersController</title>
<path fill="none" stroke="black" d="M-57.5,-71C-57.5,-71 27.5,-71 27.5,-71 33.5,-71 39.5,-77 39.5,-83 39.5,-83 39.5,-167 39.5,-167 39.5,-173 33.5,-179 27.5,-179 27.5,-179 -57.5,-179 -57.5,-179 -63.5,-179 -69.5,-173 -69.5,-167 -69.5,-167 -69.5,-83 -69.5,-83 -69.5,-77 -63.5,-71 -57.5,-71"/>
<text text-anchor="middle" x="-15" y="-163.8" font-family="Times,serif" font-size="14.00">OrdersController</text>
<polyline fill="none" stroke="black" points="-69.5,-156 39.5,-156 "/>
<text text-anchor="start" x="-61.5" y="-140.8" font-family="Times,serif" font-size="14.00">create</text>
<text text-anchor="start" x="-61.5" y="-125.8" font-family="Times,serif" font-size="14.00">index</text>
<polyline fill="none" stroke="black" points="-69.5,-118 39.5,-118 "/>
<polyline fill="none" stroke="black" points="-69.5,-94 39.5,-94 "/>
<text text-anchor="start" x="-61.5" y="-78.8" font-family="Times,serif" font-size="14.00">_layout</text>
</g>
<!-- ProductsController -->
<g id="node4" class="node"><title>ProductsController</title>
<path fill="none" stroke="black" d="M138.5,125.5C138.5,125.5 233.5,125.5 233.5,125.5 239.5,125.5 245.5,119.5 245.5,113.5 245.5,113.5 245.5,44.5 245.5,44.5 245.5,38.5 239.5,32.5 233.5,32.5 233.5,32.5 138.5,32.5 138.5,32.5 132.5,32.5 126.5,38.5 126.5,44.5 126.5,44.5 126.5,113.5 126.5,113.5 126.5,119.5 132.5,125.5 138.5,125.5"/>
<text text-anchor="middle" x="186" y="47.7" font-family="Times,serif" font-size="14.00">ProductsController</text>
<polyline fill="none" stroke="black" points="126.5,55.5 245.5,55.5 "/>
<text text-anchor="start" x="134.5" y="70.7" font-family="Times,serif" font-size="14.00">index</text>
<polyline fill="none" stroke="black" points="126.5,78.5 245.5,78.5 "/>
<polyline fill="none" stroke="black" points="126.5,102.5 245.5,102.5 "/>
<text text-anchor="start" x="134.5" y="117.7" font-family="Times,serif" font-size="14.00">_layout</text>
</g>
</g>
</svg>
