<?xml version="1.0" encoding="UTF-8" standalone="no"?>
<!DOCTYPE svg PUBLIC "-//W3C//DTD SVG 1.1//EN"
 "http://www.w3.org/Graphics/SVG/1.1/DTD/svg11.dtd">
<!-- Generated by graphviz version 2.38.0 (20140413.2041)
 -->
<!-- Title: models_diagram Pages: 1 -->
<svg width="489pt" height="230pt"
 viewBox="0.00 0.00 489.34 230.00" xmlns="http://www.w3.org/2000/svg" xmlns:xlink="http://www.w3.org/1999/xlink">
<g id="graph0" class="graph" transform="scale(1 1) rotate(0) translate(4 226)">
<title>models_diagram</title>
<polygon fill="none" stroke="none" points="-4,4 -4,-226 485.343,-226 485.343,4 -4,4"/>
<!-- _diagram_info -->
<g id="node1" class="node"><title>_diagram_info</title>
<text text-anchor="start" x="8" y="-207.6" font-family="Times,serif" font-size="13.00">Models diagram</text>
<text text-anchor="start" x="8" y="-193.6" font-family="Times,serif" font-size="13.00">Date: Sep 18 2017 &#45; 11:09</text>
<text text-anchor="start" x="8" y="-179.6" font-family="Times,serif" font-size="13.00">Migration version: 20170916151304</text>
<text text-anchor="start" x="8" y="-165.6" font-family="Times,serif" font-size="13.00">Generated by RailRoady 1.5.3</text>
<text text-anchor="start" x="8" y="-151.6" font-family="Times,serif" font-size="13.00">http://railroady.prestonlee.com</text>
</g>
<!-- Order -->
<g id="node2" class="node"><title>Order</title>
<ellipse fill="none" stroke="black" cx="269" cy="-18" rx="31.3957" ry="18"/>
<text text-anchor="middle" x="269" y="-14.3" font-family="Times,serif" font-size="14.00">Order</text>
</g>
<!-- ApplicationRecord -->
<g id="node3" class="node"><title>ApplicationRecord</title>
<ellipse fill="none" stroke="black" cx="404" cy="-183" rx="77.1866" ry="18"/>
<text text-anchor="middle" x="404" y="-179.3" font-family="Times,serif" font-size="14.00">ApplicationRecord</text>
</g>
<!-- Product -->
<g id="node4" class="node"><title>Product</title>
<ellipse fill="none" stroke="black" cx="270" cy="-183" rx="38.1938" ry="18"/>
<text text-anchor="middle" x="270" y="-179.3" font-family="Times,serif" font-size="14.00">Product</text>
</g>
<!-- Product&#45;&gt;Order -->
<g id="edge1" class="edge"><title>Product&#45;&gt;Order</title>
<path fill="none" stroke="#d1fd98" d="M265.705,-156.894C262.426,-134.603 258.813,-101.142 261,-72 261.637,-63.5179 262.838,-54.3361 264.121,-46.0356"/>
<ellipse fill="none" stroke="#d1fd98" cx="266.323" cy="-160.904" rx="4.00001" ry="4.00001"/>
<polygon fill="#d1fd98" stroke="#d1fd98" points="264.13,-45.9796 270.192,-36.8417 264.941,-41.0458 265.752,-36.1119 265.752,-36.1119 265.752,-36.1119 264.941,-41.0458 261.311,-35.3822 264.13,-45.9796 264.13,-45.9796"/>
</g>
<!-- User -->
<g id="node5" class="node"><title>User</title>
<ellipse fill="none" stroke="black" cx="297" cy="-90" rx="27.0966" ry="18"/>
<text text-anchor="middle" x="297" y="-86.3" font-family="Times,serif" font-size="14.00">User</text>
</g>
<!-- Product&#45;&gt;User -->
<g id="edge2" class="edge"><title>Product&#45;&gt;User</title>
<path fill="none" stroke="#123f96" d="M278.034,-154.922C281.55,-143.073 285.66,-129.218 289.154,-117.443"/>
<polygon fill="#123f96" stroke="#123f96" points="277.923,-155.297 270.764,-163.604 276.501,-160.09 275.078,-164.884 275.078,-164.884 275.078,-164.884 276.501,-160.09 279.393,-166.164 277.923,-155.297 277.923,-155.297"/>
<polygon fill="#123f96" stroke="#123f96" points="289.191,-117.319 296.35,-109.012 290.613,-112.526 292.036,-107.732 292.036,-107.732 292.036,-107.732 290.613,-112.526 287.721,-106.452 289.191,-117.319 289.191,-117.319"/>
</g>
<!-- User&#45;&gt;Order -->
<g id="edge3" class="edge"><title>User&#45;&gt;Order</title>
<path fill="none" stroke="#6e3ef6" d="M287.311,-64.7779C284.818,-58.544 282.122,-51.8046 279.585,-45.4634"/>
<ellipse fill="none" stroke="#6e3ef6" cx="288.879" cy="-68.6971" rx="4.00001" ry="4.00001"/>
<polygon fill="#6e3ef6" stroke="#6e3ef6" points="279.496,-45.241 279.961,-34.2849 277.639,-40.5986 275.782,-35.9562 275.782,-35.9562 275.782,-35.9562 277.639,-40.5986 271.604,-37.6275 279.496,-45.241 279.496,-45.241"/>
</g>
</g>
</svg>
