<?xml version="1.0" encoding="UTF-8" standalone="no"?>
<!DOCTYPE svg PUBLIC "-//W3C//DTD SVG 1.1//EN"
 "http://www.w3.org/Graphics/SVG/1.1/DTD/svg11.dtd">
<!-- Generated by graphviz version 2.38.0 (20140413.2041)
 -->
<!-- Title: models_diagram Pages: 1 -->
<svg width="656pt" height="566pt"
 viewBox="0.00 0.00 656.34 566.00" xmlns="http://www.w3.org/2000/svg" xmlns:xlink="http://www.w3.org/1999/xlink">
<g id="graph0" class="graph" transform="scale(1 1) rotate(0) translate(4 562)">
<title>models_diagram</title>
<polygon fill="none" stroke="none" points="-4,4 -4,-562 652.343,-562 652.343,4 -4,4"/>
<!-- _diagram_info -->
<g id="node1" class="node"><title>_diagram_info</title>
<text text-anchor="start" x="8" y="-514.1" font-family="Times,serif" font-size="13.00">Models diagram</text>
<text text-anchor="start" x="8" y="-500.1" font-family="Times,serif" font-size="13.00">Date: Sep 18 2017 &#45; 11:09</text>
<text text-anchor="start" x="8" y="-486.1" font-family="Times,serif" font-size="13.00">Migration version: 20170916151304</text>
<text text-anchor="start" x="8" y="-472.1" font-family="Times,serif" font-size="13.00">Generated by RailRoady 1.5.3</text>
<text text-anchor="start" x="8" y="-458.1" font-family="Times,serif" font-size="13.00">http://railroady.prestonlee.com</text>
</g>
<!-- Order -->
<g id="node2" class="node"><title>Order</title>
<path fill="none" stroke="black" d="M243,-0.5C243,-0.5 463,-0.5 463,-0.5 469,-0.5 475,-6.5 475,-12.5 475,-12.5 475,-109.5 475,-109.5 475,-115.5 469,-121.5 463,-121.5 463,-121.5 243,-121.5 243,-121.5 237,-121.5 231,-115.5 231,-109.5 231,-109.5 231,-12.5 231,-12.5 231,-6.5 237,-0.5 243,-0.5"/>
<text text-anchor="middle" x="353" y="-106.3" font-family="Times,serif" font-size="14.00">Order</text>
<polyline fill="none" stroke="black" points="231,-98.5 475,-98.5 "/>
<text text-anchor="start" x="239" y="-83.3" font-family="Times,serif" font-size="14.00">id :integer</text>
<text text-anchor="start" x="239" y="-68.3" font-family="Times,serif" font-size="14.00">user_id :integer</text>
<text text-anchor="start" x="239" y="-53.3" font-family="Times,serif" font-size="14.00">product_id :integer</text>
<text text-anchor="start" x="239" y="-38.3" font-family="Times,serif" font-size="14.00">payed :boolean</text>
<text text-anchor="start" x="239" y="-23.3" font-family="Times,serif" font-size="14.00">created_at :timestamp without time zone</text>
<text text-anchor="start" x="239" y="-8.3" font-family="Times,serif" font-size="14.00">updated_at :timestamp without time zone</text>
</g>
<!-- ApplicationRecord -->
<g id="node3" class="node"><title>ApplicationRecord</title>
<ellipse fill="none" stroke="black" cx="571" cy="-489.5" rx="77.1866" ry="18"/>
<text text-anchor="middle" x="571" y="-485.8" font-family="Times,serif" font-size="14.00">ApplicationRecord</text>
</g>
<!-- Product -->
<g id="node4" class="node"><title>Product</title>
<path fill="none" stroke="black" d="M244,-421.5C244,-421.5 464,-421.5 464,-421.5 470,-421.5 476,-427.5 476,-433.5 476,-433.5 476,-545.5 476,-545.5 476,-551.5 470,-557.5 464,-557.5 464,-557.5 244,-557.5 244,-557.5 238,-557.5 232,-551.5 232,-545.5 232,-545.5 232,-433.5 232,-433.5 232,-427.5 238,-421.5 244,-421.5"/>
<text text-anchor="middle" x="354" y="-542.3" font-family="Times,serif" font-size="14.00">Product</text>
<polyline fill="none" stroke="black" points="232,-534.5 476,-534.5 "/>
<text text-anchor="start" x="240" y="-519.3" font-family="Times,serif" font-size="14.00">id :integer</text>
<text text-anchor="start" x="240" y="-504.3" font-family="Times,serif" font-size="14.00">name :character varying</text>
<text text-anchor="start" x="240" y="-489.3" font-family="Times,serif" font-size="14.00">description :text</text>
<text text-anchor="start" x="240" y="-474.3" font-family="Times,serif" font-size="14.00">photo :character varying</text>
<text text-anchor="start" x="240" y="-459.3" font-family="Times,serif" font-size="14.00">price :integer</text>
<text text-anchor="start" x="240" y="-444.3" font-family="Times,serif" font-size="14.00">created_at :timestamp without time zone</text>
<text text-anchor="start" x="240" y="-429.3" font-family="Times,serif" font-size="14.00">updated_at :timestamp without time zone</text>
</g>
<!-- Product&#45;&gt;Order -->
<g id="edge1" class="edge"><title>Product&#45;&gt;Order</title>
<path fill="none" stroke="#26b0bc" d="M293.045,-414.199C287.751,-404.802 283.199,-394.973 280,-385 249.189,-288.931 247.779,-253.605 280,-158 283.21,-148.476 287.782,-139.149 293.094,-130.279"/>
<ellipse fill="none" stroke="#26b0bc" cx="295.197" cy="-417.849" rx="4.00002" ry="4.00002"/>
<polygon fill="#26b0bc" stroke="#26b0bc" points="293.264,-130.011 302.426,-123.985 295.946,-125.791 298.628,-121.571 298.628,-121.571 298.628,-121.571 295.946,-125.791 294.83,-119.157 293.264,-130.011 293.264,-130.011"/>
</g>
<!-- User -->
<g id="node5" class="node"><title>User</title>
<path fill="none" stroke="black" d="M301.5,-158.5C301.5,-158.5 590.5,-158.5 590.5,-158.5 596.5,-158.5 602.5,-164.5 602.5,-170.5 602.5,-170.5 602.5,-372.5 602.5,-372.5 602.5,-378.5 596.5,-384.5 590.5,-384.5 590.5,-384.5 301.5,-384.5 301.5,-384.5 295.5,-384.5 289.5,-378.5 289.5,-372.5 289.5,-372.5 289.5,-170.5 289.5,-170.5 289.5,-164.5 295.5,-158.5 301.5,-158.5"/>
<text text-anchor="middle" x="446" y="-369.3" font-family="Times,serif" font-size="14.00">User</text>
<polyline fill="none" stroke="black" points="289.5,-361.5 602.5,-361.5 "/>
<text text-anchor="start" x="297.5" y="-346.3" font-family="Times,serif" font-size="14.00">id :integer</text>
<text text-anchor="start" x="297.5" y="-331.3" font-family="Times,serif" font-size="14.00">email :character varying</text>
<text text-anchor="start" x="297.5" y="-316.3" font-family="Times,serif" font-size="14.00">encrypted_password :character varying</text>
<text text-anchor="start" x="297.5" y="-301.3" font-family="Times,serif" font-size="14.00">reset_password_token :character varying</text>
<text text-anchor="start" x="297.5" y="-286.3" font-family="Times,serif" font-size="14.00">reset_password_sent_at :timestamp without time zone</text>
<text text-anchor="start" x="297.5" y="-271.3" font-family="Times,serif" font-size="14.00">remember_created_at :timestamp without time zone</text>
<text text-anchor="start" x="297.5" y="-256.3" font-family="Times,serif" font-size="14.00">sign_in_count :integer</text>
<text text-anchor="start" x="297.5" y="-241.3" font-family="Times,serif" font-size="14.00">current_sign_in_at :timestamp without time zone</text>
<text text-anchor="start" x="297.5" y="-226.3" font-family="Times,serif" font-size="14.00">last_sign_in_at :timestamp without time zone</text>
<text text-anchor="start" x="297.5" y="-211.3" font-family="Times,serif" font-size="14.00">current_sign_in_ip :inet</text>
<text text-anchor="start" x="297.5" y="-196.3" font-family="Times,serif" font-size="14.00">last_sign_in_ip :inet</text>
<text text-anchor="start" x="297.5" y="-181.3" font-family="Times,serif" font-size="14.00">created_at :timestamp without time zone</text>
<text text-anchor="start" x="297.5" y="-166.3" font-family="Times,serif" font-size="14.00">updated_at :timestamp without time zone</text>
</g>
<!-- Product&#45;&gt;User -->
<g id="edge2" class="edge"><title>Product&#45;&gt;User</title>
<path fill="none" stroke="#4f687c" d="M386.618,-411.919C389.079,-406.141 391.596,-400.232 394.137,-394.266"/>
<polygon fill="#4f687c" stroke="#4f687c" points="386.524,-412.14 378.465,-419.577 384.564,-416.74 382.605,-421.34 382.605,-421.34 382.605,-421.34 384.564,-416.74 386.745,-423.104 386.524,-412.14 386.524,-412.14"/>
<polygon fill="#4f687c" stroke="#4f687c" points="394.227,-394.055 402.285,-386.618 396.186,-389.455 398.145,-384.854 398.145,-384.854 398.145,-384.854 396.186,-389.455 394.005,-383.091 394.227,-394.055 394.227,-394.055"/>
</g>
<!-- User&#45;&gt;Order -->
<g id="edge3" class="edge"><title>User&#45;&gt;Order</title>
<path fill="none" stroke="#76dbc5" d="M392.671,-150.941C389.648,-144.163 386.664,-137.473 383.772,-130.989"/>
<ellipse fill="none" stroke="#76dbc5" cx="394.332" cy="-154.663" rx="4.00002" ry="4.00002"/>
<polygon fill="#76dbc5" stroke="#76dbc5" points="383.68,-130.783 383.716,-119.818 381.644,-126.217 379.607,-121.651 379.607,-121.651 379.607,-121.651 381.644,-126.217 375.497,-123.484 383.68,-130.783 383.68,-130.783"/>
</g>
</g>
</svg>
